<svg xmlns="http://www.w3.org/2000/svg" xmlns:xlink="http://www.w3.org/1999/xlink" width="228" zoomAndPan="magnify" viewBox="0 0 171 188.249992" height="251" preserveAspectRatio="xMidYMid meet" version="1.2"><defs><clipPath id="1d6acec4e7"><path d="M 0.339844 0 L 170.660156 0 L 170.660156 187.503906 L 0.339844 187.503906 Z M 0.339844 0 "/></clipPath><clipPath id="fa2e3fb9c6"><path d="M 0.339844 26 L 170.660156 26 L 170.660156 187.503906 L 0.339844 187.503906 Z M 0.339844 26 "/></clipPath></defs><g id="43ea7e8a7a"><g clip-rule="nonzero" clip-path="url(#1d6acec4e7)"><path style=" stroke:none;fill-rule:nonzero;fill:#ffffff;fill-opacity:1;" d="M 0.339844 0 L 170.660156 0 L 170.660156 187.503906 L 0.339844 187.503906 Z M 0.339844 0 "/><path style=" stroke:none;fill-rule:nonzero;fill:#ffffff;fill-opacity:1;" d="M 0.339844 0 L 170.660156 0 L 170.660156 187.503906 L 0.339844 187.503906 Z M 0.339844 0 "/></g><g clip-rule="nonzero" clip-path="url(#fa2e3fb9c6)"><path style=" stroke:none;fill-rule:nonzero;fill:#ffffff;fill-opacity:1;" d="M 9.300781 26.300781 L 161.382812 26.300781 C 161.96875 26.300781 162.554688 26.359375 163.128906 26.472656 C 163.707031 26.589844 164.269531 26.757812 164.8125 26.984375 C 165.355469 27.210938 165.871094 27.484375 166.359375 27.8125 C 166.851562 28.140625 167.300781 28.511719 167.71875 28.925781 C 168.132812 29.34375 168.507812 29.796875 168.832031 30.285156 C 169.160156 30.773438 169.4375 31.289062 169.660156 31.832031 C 169.886719 32.378906 170.054688 32.9375 170.171875 33.515625 C 170.285156 34.089844 170.34375 34.675781 170.34375 35.261719 L 170.34375 178.339844 C 170.34375 178.925781 170.285156 179.511719 170.171875 180.085938 C 170.054688 180.664062 169.886719 181.222656 169.660156 181.769531 C 169.4375 182.3125 169.160156 182.828125 168.832031 183.316406 C 168.507812 183.804688 168.132812 184.257812 167.71875 184.675781 C 167.300781 185.089844 166.851562 185.460938 166.359375 185.789062 C 165.871094 186.117188 165.355469 186.394531 164.8125 186.617188 C 164.269531 186.84375 163.707031 187.011719 163.128906 187.128906 C 162.554688 187.242188 161.96875 187.300781 161.382812 187.300781 L 9.300781 187.300781 C 8.710938 187.300781 8.128906 187.242188 7.550781 187.128906 C 6.976562 187.011719 6.414062 186.84375 5.871094 186.617188 C 5.328125 186.394531 4.8125 186.117188 4.320312 185.789062 C 3.832031 185.460938 3.378906 185.089844 2.964844 184.675781 C 2.546875 184.257812 2.175781 183.804688 1.847656 183.316406 C 1.523438 182.828125 1.246094 182.3125 1.019531 181.769531 C 0.796875 181.222656 0.625 180.664062 0.511719 180.085938 C 0.398438 179.511719 0.339844 178.925781 0.339844 178.339844 L 0.339844 35.261719 C 0.339844 34.675781 0.398438 34.089844 0.511719 33.515625 C 0.625 32.9375 0.796875 32.378906 1.019531 31.832031 C 1.246094 31.289062 1.523438 30.773438 1.847656 30.285156 C 2.175781 29.796875 2.546875 29.34375 2.964844 28.925781 C 3.378906 28.511719 3.832031 28.140625 4.320312 27.8125 C 4.8125 27.484375 5.328125 27.210938 5.871094 26.984375 C 6.414062 26.757812 6.976562 26.589844 7.550781 26.472656 C 8.128906 26.359375 8.710938 26.300781 9.300781 26.300781 Z M 9.300781 26.300781 "/></g><path style=" stroke:none;fill-rule:nonzero;fill:#ff6347;fill-opacity:1;" d="M 74.019531 149.230469 L 74.648438 149.066406 L 126.921875 135.164062 L 156.582031 127.277344 C 156.582031 127.277344 161.0625 127.007812 162.226562 129.964844 C 163.390625 132.921875 162.851562 133.816406 162.851562 133.816406 C 162.460938 134.707031 161.933594 135.503906 161.269531 136.214844 C 160.648438 136.878906 159.921875 137.394531 159.089844 137.761719 L 83.191406 158.371094 C 83.191406 158.371094 80.324219 152.277344 74.5 149.589844 Z M 74.019531 149.230469 "/><path style=" stroke:none;fill-rule:nonzero;fill:#ff6347;fill-opacity:1;" d="M 9.949219 66.164062 L 7.710938 55.707031 L 18.550781 52.476562 C 18.550781 52.476562 37.101562 47.34375 41.410156 62.667969 C 45.71875 77.992188 64.261719 146.003906 64.261719 146.003906 C 64.261719 146.003906 56.671875 146.542969 54.554688 149.230469 L 49.503906 132.5625 L 31.1875 66.164062 C 31.1875 66.164062 29.304688 60.25 21.480469 62.9375 C 13.652344 65.625 9.949219 66.164062 9.949219 66.164062 Z M 9.949219 66.164062 "/><path style=" stroke:none;fill-rule:nonzero;fill:#ff6347;fill-opacity:1;" d="M 79.171875 167.980469 C 79.171875 168.902344 79.082031 169.816406 78.902344 170.722656 C 78.722656 171.625 78.457031 172.503906 78.105469 173.355469 C 77.75 174.207031 77.316406 175.019531 76.804688 175.785156 C 76.292969 176.550781 75.710938 177.261719 75.058594 177.914062 C 74.40625 178.566406 73.699219 179.148438 72.929688 179.660156 C 72.164062 180.171875 71.355469 180.605469 70.503906 180.957031 C 69.648438 181.3125 68.773438 181.578125 67.867188 181.757812 C 66.960938 181.9375 66.050781 182.027344 65.125 182.027344 C 64.203125 182.027344 63.292969 181.9375 62.386719 181.757812 C 61.480469 181.578125 60.605469 181.3125 59.75 180.957031 C 58.898438 180.605469 58.089844 180.171875 57.324219 179.660156 C 56.554688 179.148438 55.847656 178.566406 55.195312 177.914062 C 54.542969 177.261719 53.960938 176.550781 53.449219 175.785156 C 52.933594 175.019531 52.503906 174.207031 52.148438 173.355469 C 51.796875 172.503906 51.53125 171.625 51.351562 170.722656 C 51.171875 169.816406 51.082031 168.902344 51.082031 167.980469 C 51.082031 167.058594 51.171875 166.144531 51.351562 165.242188 C 51.53125 164.335938 51.796875 163.457031 52.148438 162.605469 C 52.503906 161.753906 52.933594 160.945312 53.449219 160.179688 C 53.960938 159.410156 54.542969 158.703125 55.195312 158.050781 C 55.847656 157.398438 56.554688 156.816406 57.324219 156.300781 C 58.089844 155.789062 58.898438 155.359375 59.75 155.003906 C 60.605469 154.652344 61.480469 154.386719 62.386719 154.207031 C 63.292969 154.023438 64.203125 153.933594 65.125 153.933594 C 66.050781 153.933594 66.960938 154.023438 67.867188 154.207031 C 68.773438 154.386719 69.648438 154.652344 70.503906 155.003906 C 71.355469 155.359375 72.164062 155.789062 72.929688 156.300781 C 73.699219 156.816406 74.40625 157.398438 75.058594 158.050781 C 75.710938 158.703125 76.292969 159.410156 76.804688 160.179688 C 77.316406 160.945312 77.75 161.753906 78.105469 162.605469 C 78.457031 163.457031 78.722656 164.335938 78.902344 165.242188 C 79.082031 166.144531 79.171875 167.058594 79.171875 167.980469 Z M 79.171875 167.980469 "/><path style=" stroke:none;fill-rule:nonzero;fill:#ffffff;fill-opacity:1;" d="M 71.300781 167.980469 C 71.300781 168.347656 71.265625 168.707031 71.195312 169.066406 C 71.125 169.421875 71.019531 169.769531 70.878906 170.109375 C 70.738281 170.445312 70.570312 170.765625 70.367188 171.066406 C 70.164062 171.371094 69.933594 171.652344 69.675781 171.910156 C 69.417969 172.167969 69.136719 172.398438 68.832031 172.601562 C 68.53125 172.804688 68.210938 172.976562 67.871094 173.113281 C 67.535156 173.253906 67.1875 173.359375 66.832031 173.429688 C 66.472656 173.5 66.113281 173.539062 65.746094 173.539062 C 65.382812 173.539062 65.019531 173.5 64.664062 173.429688 C 64.304688 173.359375 63.957031 173.253906 63.621094 173.113281 C 63.285156 172.976562 62.964844 172.804688 62.660156 172.601562 C 62.355469 172.398438 62.074219 172.167969 61.816406 171.910156 C 61.558594 171.652344 61.328125 171.371094 61.128906 171.066406 C 60.925781 170.765625 60.753906 170.445312 60.613281 170.109375 C 60.472656 169.769531 60.367188 169.421875 60.296875 169.066406 C 60.226562 168.707031 60.191406 168.347656 60.191406 167.980469 C 60.191406 167.617188 60.226562 167.253906 60.296875 166.898438 C 60.367188 166.539062 60.472656 166.191406 60.613281 165.855469 C 60.753906 165.519531 60.925781 165.199219 61.128906 164.894531 C 61.328125 164.589844 61.558594 164.3125 61.816406 164.054688 C 62.074219 163.796875 62.355469 163.566406 62.660156 163.363281 C 62.964844 163.160156 63.285156 162.988281 63.621094 162.847656 C 63.957031 162.710938 64.304688 162.605469 64.664062 162.53125 C 65.019531 162.460938 65.382812 162.425781 65.746094 162.425781 C 66.113281 162.425781 66.472656 162.460938 66.832031 162.53125 C 67.1875 162.605469 67.535156 162.710938 67.871094 162.847656 C 68.210938 162.988281 68.53125 163.160156 68.832031 163.363281 C 69.136719 163.566406 69.417969 163.796875 69.675781 164.054688 C 69.933594 164.3125 70.164062 164.589844 70.367188 164.894531 C 70.570312 165.199219 70.738281 165.519531 70.878906 165.855469 C 71.019531 166.191406 71.125 166.539062 71.195312 166.898438 C 71.265625 167.253906 71.300781 167.617188 71.300781 167.980469 Z M 71.300781 167.980469 "/><path style=" stroke:none;fill-rule:nonzero;fill:#ff6347;fill-opacity:1;" d="M 62.429688 92.457031 L 71.035156 89.769531 L 80.785156 87.078125 L 81.609375 87.078125 L 84.652344 97.832031 C 84.660156 98.054688 84.710938 98.265625 84.808594 98.464844 C 84.90625 98.660156 85.042969 98.832031 85.214844 98.96875 C 85.386719 99.109375 85.582031 99.203125 85.796875 99.253906 C 86.011719 99.308594 86.230469 99.3125 86.445312 99.265625 C 88.238281 99.085938 109.207031 93.179688 109.207031 93.179688 C 109.207031 93.179688 110.820312 92.636719 110.460938 90.304688 C 110.101562 87.976562 107.414062 79.910156 107.414062 79.910156 L 125.875 75.25 C 125.875 75.25 127.308594 74.890625 127.847656 77.042969 C 128.382812 79.195312 139.675781 120.59375 139.675781 120.59375 C 139.675781 120.59375 140.75 122.566406 139.675781 123.28125 C 138.980469 123.738281 138.261719 124.15625 137.523438 124.535156 L 76.769531 140.664062 C 76.769531 140.664062 74.976562 141.414062 74.082031 137.976562 C 73.183594 134.542969 66.375 109.300781 66.375 109.300781 L 62.429688 95.683594 Z M 62.429688 92.457031 "/><path style=" stroke:none;fill-rule:nonzero;fill:#ff6347;fill-opacity:1;" d="M 56.832031 45.800781 L 66.328125 80.386719 L 66.328125 81.644531 C 67.40625 81.882812 68.480469 81.882812 69.554688 81.644531 C 71.707031 81.285156 112.566406 70.53125 112.566406 70.53125 C 112.566406 70.53125 113.464844 69.785156 113.464844 67.84375 C 113.464844 65.902344 103.25 32.359375 103.25 32.359375 L 100.558594 32.359375 L 95.542969 33.804688 L 89.808594 35.597656 L 91.242188 42.410156 C 91.242188 42.410156 91.597656 44.203125 90.492188 44.558594 C 89.386719 44.917969 74.363281 48.859375 74.363281 48.859375 C 74.363281 48.859375 72.929688 49.609375 72.570312 47.070312 C 72.097656 44.746094 71.441406 42.476562 70.601562 40.257812 L 57.515625 43.992188 Z M 56.832031 45.800781 "/></g></svg>